REM DIRINDEX 1\2,1\3,1\4,1\5
REM DIRNAME "folder01","folder02","folder03","folder04","folder05"
TITLE ""
FILE "1Q_t_0710-0719.mp3" MP3
  TRACK 01 AUDIO
    TITLE "3:cjc172_3073"
    INDEX 01 00:00:00
  TRACK 02 AUDIO
    TITLE "0:"
    INDEX 01 00:01:06
  TRACK 03 AUDIO
    TITLE "4:cjc172_3074"
    INDEX 01 00:01:14
  TRACK 04 AUDIO
    TITLE "0:"
    INDEX 01 00:03:48
  TRACK 05 AUDIO
    TITLE "5:cjc172_3075"
    INDEX 01 00:03:54
  TRACK 06 AUDIO
    TITLE "0:"
    INDEX 01 00:08:41
  TRACK 07 AUDIO
    TITLE "3:cjc172_3076"
    INDEX 01 00:09:09
  TRACK 08 AUDIO
    TITLE "0:"
    INDEX 01 00:10:19
  TRACK 09 AUDIO
    TITLE "4:cjc172_3077"
    INDEX 01 00:10:28
  TRACK 10 AUDIO
    TITLE "0:"
    INDEX 01 00:11:26
  TRACK 11 AUDIO
    TITLE "5:cjc172_3078"
    INDEX 01 00:11:34
  TRACK 12 AUDIO
    TITLE "0:"
    INDEX 01 00:15:33
  TRACK 13 AUDIO
    TITLE "3:cjc172_3079"
    INDEX 01 00:16:03
  TRACK 14 AUDIO
    TITLE "0:"
    INDEX 01 00:17:26
  TRACK 15 AUDIO
    TITLE "4:cjc172_3080"
    INDEX 01 00:17:36
  TRACK 16 AUDIO
    TITLE "0:"
    INDEX 01 00:21:30
  TRACK 17 AUDIO
    TITLE "5:cjc172_3081"
    INDEX 01 00:21:38
  TRACK 18 AUDIO
    TITLE "0:"
    INDEX 01 00:25:61
  TRACK 19 AUDIO
    TITLE "3:cjc172_3082"
    INDEX 01 00:26:31
  TRACK 20 AUDIO
    TITLE "0:"
    INDEX 01 00:27:68
  TRACK 21 AUDIO
    TITLE "4:cjc172_3083"
    INDEX 01 00:27:74
  TRACK 22 AUDIO
    TITLE "0:"
    INDEX 01 00:32:32
  TRACK 23 AUDIO
    TITLE "5:cjc172_3084"
    INDEX 01 00:32:38
  TRACK 24 AUDIO
    TITLE "0:"
    INDEX 01 00:37:70
  TRACK 25 AUDIO
    TITLE "3:cjc172_3085"
    INDEX 01 00:38:42
  TRACK 26 AUDIO
    TITLE "0:"
    INDEX 01 00:39:48
  TRACK 27 AUDIO
    TITLE "4:cjc172_3086"
    INDEX 01 00:39:55
  TRACK 28 AUDIO
    TITLE "0:"
    INDEX 01 00:43:22
  TRACK 29 AUDIO
    TITLE "5:cjc172_3087"
    INDEX 01 00:43:28
  TRACK 30 AUDIO
    TITLE "0:"
    INDEX 01 00:48:00
  TRACK 31 AUDIO
    TITLE "3:cjc172_3088"
    INDEX 01 00:48:49
  TRACK 32 AUDIO
    TITLE "0:"
    INDEX 01 00:50:00
  TRACK 33 AUDIO
    TITLE "4:cjc172_3089"
    INDEX 01 00:50:10
  TRACK 34 AUDIO
    TITLE "0:"
    INDEX 01 00:51:37
  TRACK 35 AUDIO
    TITLE "5:cjc172_3090"
    INDEX 01 00:51:45
  TRACK 36 AUDIO
    TITLE "0:"
    INDEX 01 00:56:46
  TRACK 37 AUDIO
    TITLE "3:cjc172_3091"
    INDEX 01 00:57:18
  TRACK 38 AUDIO
    TITLE "0:"
    INDEX 01 00:58:29
  TRACK 39 AUDIO
    TITLE "4:cjc172_3092"
    INDEX 01 00:58:39
  TRACK 40 AUDIO
    TITLE "0:"
    INDEX 01 01:02:47
  TRACK 41 AUDIO
    TITLE "5:cjc172_3093"
    INDEX 01 01:02:54
  TRACK 42 AUDIO
    TITLE "0:"
    INDEX 01 01:06:19
  TRACK 43 AUDIO
    TITLE "3:cjc172_3094"
    INDEX 01 01:06:64
  TRACK 44 AUDIO
    TITLE "0:"
    INDEX 01 01:08:10
  TRACK 45 AUDIO
    TITLE "4:cjc172_3095"
    INDEX 01 01:08:18
  TRACK 46 AUDIO
    TITLE "0:"
    INDEX 01 01:09:58
  TRACK 47 AUDIO
    TITLE "5:cjc172_3096"
    INDEX 01 01:09:66
  TRACK 48 AUDIO
    TITLE "0:"
    INDEX 01 01:14:71
  TRACK 49 AUDIO
    TITLE "3:cjc172_3097"
    INDEX 01 01:15:51
  TRACK 50 AUDIO
    TITLE "0:"
    INDEX 01 01:16:72
  TRACK 51 AUDIO
    TITLE "4:cjc172_3098"
    INDEX 01 01:17:05
  TRACK 52 AUDIO
    TITLE "0:"
    INDEX 01 01:20:33
  TRACK 53 AUDIO
    TITLE "5:cjc172_3099"
    INDEX 01 01:20:39
  TRACK 54 AUDIO
    TITLE "0:"
    INDEX 01 01:25:03
  TRACK 55 AUDIO
    TITLE "3:cjc172_3100"
    INDEX 01 01:25:50
  TRACK 56 AUDIO
    TITLE "0:"
    INDEX 01 01:26:45
  TRACK 57 AUDIO
    TITLE "4:cjc172_3101"
    INDEX 01 01:26:55
  TRACK 58 AUDIO
    TITLE "0:"
    INDEX 01 01:28:30
  TRACK 59 AUDIO
    TITLE "5:cjc172_3102"
    INDEX 01 01:28:36
  TRACK 60 AUDIO
    TITLE "0:"
    INDEX 01 01:32:32
